<svg t="1763125221547" fill="currentColor" viewBox="0 0 1024 1024" version="1.1" xmlns="http://www.w3.org/2000/svg" p-id="1655" width="200" height="200"><path d="M910.2336 332.8a417.1776 417.1776 0 0 0-789.248 1.536A102.4 102.4 0 0 0 43.3664 433.4592v106.4448a102.4 102.4 0 0 0 102.4 102.4h6.656a102.4 102.4 0 0 0 102.4-102.4V433.4592A102.4 102.4 0 0 0 185.5488 336.896a355.7376 355.7376 0 0 1 661.6576 2.3552 102.4 102.4 0 0 0-62.5664 94.208v106.4448A102.4 102.4 0 0 0 838.1952 629.76a358.4 358.4 0 0 1-232.2944 193.6896 93.0304 93.0304 0 1 0 9.216 61.0304 419.84 419.84 0 0 0 284.9792-242.7392 102.4 102.4 0 0 0 95.6416-101.888V433.4592A102.4 102.4 0 0 0 910.2336 332.8zM193.0752 539.904a40.96 40.96 0 0 1-40.96 40.96h-6.656a40.96 40.96 0 0 1-40.96-40.96V433.4592a40.96 40.96 0 0 1 40.96-40.96h6.656a40.96 40.96 0 0 1 40.96 40.96z m330.7008 358.8096a31.5904 31.5904 0 1 1 31.5904-31.5904 31.6416 31.6416 0 0 1-31.5904 31.5904z m410.5216-358.8096a40.96 40.96 0 0 1-40.96 40.96h-6.656a40.96 40.96 0 0 1-40.96-40.96V433.4592a40.96 40.96 0 0 1 40.96-40.96h6.656a40.96 40.96 0 0 1 40.96 40.96z" p-id="1656"></path><path d="M675.84 594.432a30.72 30.72 0 1 0-56.9856-22.9376 102.4 102.4 0 0 1-189.8496 0 30.72 30.72 0 1 0-56.9856 22.9376 163.84 163.84 0 0 0 303.8208 0z" p-id="1657"></path></svg>