<svg t="1763371515866" fill="currentColor" viewBox="0 0 1024 1024" version="1.1" xmlns="http://www.w3.org/2000/svg" p-id="37605" width="200" height="200"><path d="M563.2 460.8m-396.8 0a396.8 396.8 0 1 0 793.6 0 396.8 396.8 0 1 0-793.6 0Z" fill="#F0F9FE" p-id="37606"></path><path d="M512 947.2c240.3584 0 435.2-194.8416 435.2-435.2S752.3584 76.8 512 76.8 76.8 271.6416 76.8 512c0 57.7664 11.2384 112.832 31.616 163.2a25.6 25.6 0 0 1-47.4496 19.2A485.0944 485.0944 0 0 1 25.6 512C25.6 243.3664 243.3664 25.6 512 25.6s486.4 217.7664 486.4 486.4-217.7664 486.4-486.4 486.4a25.6 25.6 0 1 1 0-51.2z" fill="#3A4453" p-id="37607"></path><path d="M608 972.8a44.8 44.8 0 0 1-44.8 44.8h-102.4a44.8 44.8 0 1 1 0-89.6h102.4a44.8 44.8 0 0 1 44.8 44.8z" fill="#3A4453" p-id="37608"></path><path d="M345.6 358.4a51.2 51.2 0 0 1 51.2 51.2v102.4a51.2 51.2 0 0 1-102.4 0v-102.4a51.2 51.2 0 0 1 51.2-51.2zM678.4 358.4a51.2 51.2 0 0 1 51.2 51.2v102.4a51.2 51.2 0 0 1-102.4 0v-102.4a51.2 51.2 0 0 1 51.2-51.2z" p-id="37609"></path></svg>